# xmcd CD database file
# Copyright (C) 1996 Ti Kan
#
# Track frame offsets:
# 	187
# 	13075
# 	22722
# 	41637
# 	56802
# 	71050
# 	84615
# 	99535
# 	111005
# 	126567
# 	141850
#
# Disc length: 2080 seconds
#
# Revision: 1
# Processed by: cddbd v1.4b41PL1 Copyright (c) Steve Scherf et al.
# Submitted via: DiscPlay 3.4.1
#
DISCID=98081e0b
DTITLE=Glen Campbell - Glen Campbell Greatest Country Hits
DYEAR=1900
DGENRE=
TTITLE0=Gone, Gone, Gone
TTITLE1=Somebody's Leaving
TTITLE2=Still Within The Sound Of My Voice
TTITLE3=I Have You
TTITLE4=The Hand That Rocks The Cradle
TTITLE5=Southern Nights
TTITLE6=Rhinestone Cowboy
TTITLE7=Walkin' In The Sun
TTITLE8=On A Good Night
TTITLE9=If I Could Only Get My Hands On You Now
TTITLE10=Country Boy
EXTD=
EXTT0=
EXTT1=
EXTT2=
EXTT3=
EXTT4=
EXTT5=
EXTT6=
EXTT7=
EXTT8=
EXTT9=
EXTT10=
PLAYORDER=
